<svg width="191" height="181" viewBox="0 0 191 181" fill="none" xmlns="http://www.w3.org/2000/svg">
<path d="M0 61C0 27.3106 27.3106 0 61 0H125C158.689 0 186 27.3106 186 61V120C186 153.689 158.689 181 125 181H61C27.3106 181 0 153.689 0 120V61Z" fill="#A1FF00"/>
<path d="M29.72 106H20.96C19.6267 106 18.7333 105.907 18.28 105.72C17.8267 105.533 17.6 105.24 17.6 104.84V79.12C17.6 77.84 21.4533 77.2 29.16 77.2C33.5867 77.2 36.64 77.6267 38.32 78.48C40.0267 79.36 41.12 80.48 41.6 81.84C41.8667 82.64 42 83.5733 42 84.64C42 86.72 41.64 88.28 40.92 89.32C40.2267 90.36 39.4667 90.9467 38.64 91.08C39.8933 91.3467 40.9333 91.96 41.76 92.92C42.5867 93.88 43 95.5067 43 97.8C43 100.467 42.1867 102.44 40.56 103.72C39.1467 104.84 36.9867 105.547 34.08 105.84C32.8533 105.947 31.4 106 29.72 106ZM29.76 88.56C31.12 88.56 31.8 87.6533 31.8 85.84C31.8 84.9333 31.6133 84.2667 31.24 83.84C30.8933 83.3867 30.4933 83.16 30.04 83.16H28.76V88.56H29.76ZM28.76 100.04H29.76C31.12 100.04 31.8 99.1333 31.8 97.32C31.8 96.4133 31.6133 95.7467 31.24 95.32C30.8933 94.8667 30.4933 94.64 30.04 94.64H28.76V100.04ZM53.2031 106.36C50.7765 106.36 48.8698 105.787 47.4831 104.64C46.9231 104.16 46.4298 103.453 46.0031 102.52C45.6031 101.587 45.4031 100.493 45.4031 99.24C45.4031 97.9867 45.6965 96.8933 46.2831 95.96C46.8965 95.0267 47.6298 94.3067 48.4831 93.8C49.3365 93.2933 50.3365 92.88 51.4831 92.56C53.2165 92.1067 55.1231 91.88 57.2031 91.88H58.5231C58.5231 90.7867 58.1498 90.0133 57.4031 89.56C57.0831 89.3733 56.5898 89.28 55.9231 89.28C55.2831 89.28 54.4965 89.4533 53.5631 89.8C52.6565 90.1467 51.8965 90.5067 51.2831 90.88C50.6698 91.2267 50.2565 91.4 50.0431 91.4C49.5631 91.4 48.9098 90.7733 48.0831 89.52C47.2565 88.24 46.8431 87.08 46.8431 86.04C46.8431 85.6933 47.3365 85.24 48.3231 84.68C49.3098 84.12 50.6965 83.6133 52.4831 83.16C54.2965 82.68 56.0565 82.44 57.7631 82.44C59.4698 82.44 60.9365 82.5867 62.1631 82.88C63.4165 83.1467 64.4298 83.48 65.2031 83.88C66.0031 84.28 66.6698 84.8133 67.2031 85.48C67.7631 86.1467 68.1765 86.7467 68.4431 87.28C68.7365 87.8133 68.9498 88.5067 69.0831 89.36C69.2698 90.3467 69.3631 91.56 69.3631 93V105.04C69.3631 105.333 68.6431 105.573 67.2031 105.76C65.7898 105.92 64.3765 106 62.9631 106C61.5765 106 60.6698 105.96 60.2431 105.88C59.8431 105.8 59.6031 105.707 59.5231 105.6C59.4431 105.493 59.3765 105.307 59.3231 105.04L59.0031 102.76H58.6831C58.0165 105.16 56.1898 106.36 53.2031 106.36ZM58.5631 99.72V95.04C57.8698 95.04 57.3098 95.3333 56.8831 95.92C56.4565 96.5067 56.2431 97.1733 56.2431 97.92C56.2431 99.68 56.6431 100.56 57.4431 100.56C57.7898 100.56 58.0565 100.48 58.2431 100.32C58.4565 100.133 58.5631 99.9333 58.5631 99.72ZM92.0056 88.88C92.0056 89.2533 91.4456 90.2533 90.3256 91.88C89.2323 93.48 87.579 95.6933 85.3656 98.52H91.8056C92.4723 98.52 92.8056 99.4533 92.8056 101.32C92.8056 102.547 92.6323 103.64 92.2856 104.6C91.939 105.533 91.5123 106 91.0056 106H73.7656C73.0456 106 72.5256 105.373 72.2056 104.12C71.9123 102.84 71.7656 101.467 71.7656 100C71.7656 99.68 72.379 98.72 73.6056 97.12C74.859 95.4933 76.7256 93.2133 79.2056 90.28H73.0856C72.419 90.28 72.0856 89.3467 72.0856 87.48C72.0856 86.2533 72.2456 85.1733 72.5656 84.24C72.9123 83.28 73.3523 82.8 73.8856 82.8H90.0856C91.3656 82.8 92.0056 84.8267 92.0056 88.88ZM102.813 106.36C100.386 106.36 98.4792 105.787 97.0925 104.64C96.5325 104.16 96.0392 103.453 95.6125 102.52C95.2125 101.587 95.0125 100.493 95.0125 99.24C95.0125 97.9867 95.3058 96.8933 95.8925 95.96C96.5058 95.0267 97.2392 94.3067 98.0925 93.8C98.9458 93.2933 99.9458 92.88 101.093 92.56C102.826 92.1067 104.733 91.88 106.813 91.88H108.133C108.133 90.7867 107.759 90.0133 107.013 89.56C106.693 89.3733 106.199 89.28 105.533 89.28C104.893 89.28 104.106 89.4533 103.173 89.8C102.266 90.1467 101.506 90.5067 100.893 90.88C100.279 91.2267 99.8658 91.4 99.6525 91.4C99.1725 91.4 98.5192 90.7733 97.6925 89.52C96.8658 88.24 96.4525 87.08 96.4525 86.04C96.4525 85.6933 96.9458 85.24 97.9325 84.68C98.9192 84.12 100.306 83.6133 102.093 83.16C103.906 82.68 105.666 82.44 107.373 82.44C109.079 82.44 110.546 82.5867 111.773 82.88C113.026 83.1467 114.039 83.48 114.813 83.88C115.613 84.28 116.279 84.8133 116.813 85.48C117.373 86.1467 117.786 86.7467 118.053 87.28C118.346 87.8133 118.559 88.5067 118.693 89.36C118.879 90.3467 118.973 91.56 118.973 93V105.04C118.973 105.333 118.253 105.573 116.813 105.76C115.399 105.92 113.986 106 112.573 106C111.186 106 110.279 105.96 109.853 105.88C109.453 105.8 109.213 105.707 109.133 105.6C109.053 105.493 108.986 105.307 108.933 105.04L108.613 102.76H108.293C107.626 105.16 105.799 106.36 102.813 106.36ZM108.173 99.72V95.04C107.479 95.04 106.919 95.3333 106.493 95.92C106.066 96.5067 105.853 97.1733 105.853 97.92C105.853 99.68 106.253 100.56 107.053 100.56C107.399 100.56 107.666 100.48 107.853 100.32C108.066 100.133 108.173 99.9333 108.173 99.72ZM129.375 106.36C126.948 106.36 125.042 105.787 123.655 104.64C123.095 104.16 122.602 103.453 122.175 102.52C121.775 101.587 121.575 100.493 121.575 99.24C121.575 97.9867 121.868 96.8933 122.455 95.96C123.068 95.0267 123.802 94.3067 124.655 93.8C125.508 93.2933 126.508 92.88 127.655 92.56C129.388 92.1067 131.295 91.88 133.375 91.88H134.695C134.695 90.7867 134.322 90.0133 133.575 89.56C133.255 89.3733 132.762 89.28 132.095 89.28C131.455 89.28 130.668 89.4533 129.735 89.8C128.828 90.1467 128.068 90.5067 127.455 90.88C126.842 91.2267 126.428 91.4 126.215 91.4C125.735 91.4 125.082 90.7733 124.255 89.52C123.428 88.24 123.015 87.08 123.015 86.04C123.015 85.6933 123.508 85.24 124.495 84.68C125.482 84.12 126.868 83.6133 128.655 83.16C130.468 82.68 132.228 82.44 133.935 82.44C135.642 82.44 137.108 82.5867 138.335 82.88C139.588 83.1467 140.602 83.48 141.375 83.88C142.175 84.28 142.842 84.8133 143.375 85.48C143.935 86.1467 144.348 86.7467 144.615 87.28C144.908 87.8133 145.122 88.5067 145.255 89.36C145.442 90.3467 145.535 91.56 145.535 93V105.04C145.535 105.333 144.815 105.573 143.375 105.76C141.962 105.92 140.548 106 139.135 106C137.748 106 136.842 105.96 136.415 105.88C136.015 105.8 135.775 105.707 135.695 105.6C135.615 105.493 135.548 105.307 135.495 105.04L135.175 102.76H134.855C134.188 105.16 132.362 106.36 129.375 106.36ZM134.735 99.72V95.04C134.042 95.04 133.482 95.3333 133.055 95.92C132.628 96.5067 132.415 97.1733 132.415 97.92C132.415 99.68 132.815 100.56 133.615 100.56C133.962 100.56 134.228 100.48 134.415 100.32C134.628 100.133 134.735 99.9333 134.735 99.72ZM159.138 93.36V105.04C159.138 105.333 158.378 105.573 156.858 105.76C155.364 105.92 153.804 106 152.178 106C150.578 106 149.538 105.933 149.058 105.8C148.578 105.64 148.338 105.387 148.338 105.04V85.32C148.338 84.8133 149.071 84.2667 150.538 83.68C152.031 83.0933 153.644 82.8 155.378 82.8C157.138 82.8 158.124 83.28 158.338 84.24L158.738 86.08H159.018C159.391 85.0667 160.284 84.2133 161.698 83.52C163.111 82.8 164.524 82.44 165.938 82.44C167.351 82.44 168.338 82.6667 168.898 83.12C169.484 83.5733 169.778 84.16 169.778 84.88C169.778 85.5733 169.724 86.4667 169.618 87.56C169.511 88.6533 169.244 89.84 168.818 91.12C168.418 92.4 167.884 93.04 167.218 93.04C166.951 93.04 166.111 92.84 164.698 92.44C163.284 92.04 162.111 91.84 161.178 91.84C160.271 91.84 159.698 91.9733 159.458 92.24C159.244 92.5067 159.138 92.88 159.138 93.36Z" fill="black"/>
</svg>
